<svg xmlns="http://www.w3.org/2000/svg" version="1.1" xlink="http://www.w3.org/1999/xlink" xmlns:svgjs="http://svgjs.com/svgjs" width="100%" height="100%" viewBox="1.0850000381469727 -0.0000820159912109375 97.83000183105469 100.00009155273438"><g fill="url(#SvgjsLinearGradient1005)"><path d="M76.012 89.344l22.903-4.502-7.779-31.188-4.837.949-.167-.838c-.393-1.951-1.857-3.463-3.67-4.037l-3.187-14.436a3.846 3.846 0 0 0-1.542-2.14l-15.581-10.58-.09-.061-.357-.242-.019.029c-1.134-.689-2.445-1.121-3.859-1.144-3.11-.106-5.678 1.618-6.961 4.132l-9.059 12.627-16.142 4.83.28 1.117c-1.867.373-3.35 1.664-3.964 3.454l-6.464-4.453L1.085 62.259l11.49 7.917 1.903-23.114 7.481.343c-.145.443-.321.879-.343 1.368l-.032.727-5.171-.237-2.789 33.917 23.319 1.066.308-34.032-4.968-.226.032-.726c.027-.506-.113-.972-.222-1.444l12.978-2.771a3.853 3.853 0 0 0 2.183-1.492l1.854-2.579a80.2 80.2 0 0 0 .339 6.383C36.559 69.347 39.371 85.8 39.371 85.8s1.089-.85 3.888-1.352l.465 15.418 5.74.134 1.252-15.767c1.306.106 2.735.273 4.326.538 1.858.312 3.671.459 5.411.497l7.064 13.803 5.614-2.559-4.746-11.852c1.749-.287 3.372-.62 4.674-.975l-4.791-27.749 1.654-.332c-2.197-4.878-4.602-7.671-4.602-7.671.298-1.659.181-4.92-.081-8.357l.09-5.515 6.907 4.688 4.524 12.749c-.1.132-.249.211-.344.351a5.319 5.319 0 0 0-.791 4.023l.158.8-5.116 1.006 5.345 31.666zM30.068 49.887l-6.274-.287.036-.728c.063-1.512 1.216-2.665 2.658-2.897l.732 2.884 2.744-.585c.068.289.149.576.136.886l-.032.727zm47.729 5.549c-.158-.779.009-1.564.42-2.24l4.051-1.147c.836.425 1.496 1.185 1.694 2.153l.163.832-6.161 1.209-.167-.807zM55.802 18.892c1.388.201 2.734.052 3.991-.337 4.077-.515 8.868-3.439 7.621-9.96C65.751-.118 56.796 0 56.796 0c-4.909.222-8.181 2.825-9.148 6.08-.312 1.071-.045 1.971.42 2.719-.574 4.895 2.834 9.381 7.734 10.093z"/><path d="M67.423 16.905c2.834 3.069 6.821 4.118 12.097-.031 0 0-4.132-.011-6.618-3.89-2.482-3.878-8.313.852-5.479 3.921z"/></g><defs><linearGradient gradientUnits="userSpaceOnUse" id="SvgjsLinearGradient1005" x1="0.5424776077270933" y1="99.45748710632321" x2="99.45752429962158" y2="0.5424404144287073"><stop stop-color="#e099ca" offset="0.05"/><stop stop-color="#bf4aa2" offset="0.95"/></linearGradient></defs></svg>