<svg xmlns="http://www.w3.org/2000/svg" version="1.1" xlink="http://www.w3.org/1999/xlink" xmlns:svgjs="http://svgjs.com/svgjs" width="100%" height="100%" viewBox="5 -98.58999633789062 232.47999572753906 126.39999389648438"><g fill="#bf4aa2"><path d="M14.32 1.33C15.32 0.67 18.32 -3.5 23.32 -11.16C25.76 -15.04 27.98 -18.37 29.98 -21.15C31.31 -13.49 33.64 -6 36.97 1.33C40.3 8.66 44.47 14.91 49.46 20.07C54.46 25.23 59.57 27.81 64.78 27.81C67.45 27.81 70.22 26.92 73.11 25.15C76 23.37 77.5 20.93 77.61 17.82C77.61 16.49 77.16 14.85 76.27 12.91C75.39 10.96 74.61 9.6 73.94 8.83C72.83 7.94 71.78 7.44 70.78 7.33C69.67 7.33 69.81 8.41 71.2 10.58C72.58 12.74 73.5 15.32 73.94 18.32C74.61 21.65 73.05 23.32 69.28 23.32C64.73 23.32 59.7 19.98 54.21 13.32C48.71 6.66 44.69 0.67 42.13 -4.66C39.58 -9.99 36.97 -17.32 34.31 -26.65C38.19 -30.75 46.24 -35.75 58.46 -41.63C61.01 -42.86 62.29 -44.24 62.29 -45.8C62.29 -46.69 61.73 -47.52 60.62 -48.3C59.51 -49.07 58.23 -49.46 56.79 -49.46C55.35 -49.46 53.74 -49.02 51.96 -48.13C48.19 -46.35 42.02 -40.47 33.47 -30.48L32.81 -32.81C32.59 -34.47 32.09 -35.14 31.31 -34.81C29.87 -34.03 29.14 -31.98 29.14 -28.64C29.14 -27.53 29.2 -26.48 29.31 -25.48L18.49 -11.32C21.82 -21.76 25.65 -31.75 29.98 -41.3C34.86 -43.41 40.47 -46.74 46.8 -51.29C53.13 -55.85 58.84 -60.84 63.95 -66.28C73.5 -76.83 78.27 -84.88 78.27 -90.43C78.27 -93.32 77.05 -95.4 74.61 -96.68C72.17 -97.95 69.61 -98.59 66.95 -98.59C63.17 -98.59 59.12 -97.29 54.79 -94.68C50.46 -92.07 46.3 -87.93 42.3 -82.27C34.97 -72.17 28.87 -60.68 23.98 -47.8C23.76 -47.8 23.32 -47.91 22.65 -48.13C21.21 -48.91 20.21 -48.63 19.65 -47.3C19.43 -46.85 19.32 -46.21 19.32 -45.38C19.32 -44.55 20.15 -43.69 21.82 -42.8C16.27 -34.47 11.66 -28.09 7.99 -23.65C6.44 -21.65 6.13 -20.48 7.08 -20.15C8.02 -19.82 8.77 -20.04 9.33 -20.82C12.77 -25.7 15.77 -29.53 18.32 -32.31C16.76 -28.42 14.93 -23.59 12.82 -17.82C10.71 -12.05 8.97 -7.27 7.58 -3.5C6.19 0.28 5.41 2.36 5.25 2.75C5.08 3.14 5 3.5 5 3.83C5 4.16 5.55 4.33 6.66 4.33C7.77 4.33 10.33 3.33 14.32 1.33ZM73.28 -91.43C73.28 -89.43 71.78 -85.93 68.78 -80.94C65.78 -75.94 62.9 -71.83 60.12 -68.61C51.68 -58.95 42.3 -51.74 31.98 -46.96C36.75 -57.29 41.58 -65.92 46.46 -72.86C51.35 -79.8 57.34 -85.99 64.45 -91.43C67 -93.43 69.11 -94.43 70.78 -94.43C72.44 -94.43 73.28 -93.43 73.28 -91.43Z M72.28 1.83C76.16 1.83 80.52 -0.11 85.35 -4C90.18 -7.88 94.43 -11.94 98.09 -16.15C101.76 -20.37 103.81 -22.59 104.25 -22.82C102.14 -17.26 101.09 -11.99 101.09 -6.99C101.09 -5.33 101.26 -3.83 101.59 -2.5C103.03 1.72 105.86 3.83 110.08 3.83C114.52 3.83 119.35 1.89 124.57 -2C127.35 -4 131.37 -7.8 136.64 -13.41C141.92 -19.01 144.56 -22.65 144.56 -24.31C144.56 -24.54 144.28 -24.79 143.72 -25.06C143.17 -25.34 142.67 -25.2 142.22 -24.65C139.12 -20.21 134.98 -15.65 129.82 -10.99C124.65 -6.33 120.63 -3.22 117.74 -1.67C114.86 -0.11 112.58 -0.22 110.91 -2C110.03 -3 109.58 -4.27 109.58 -5.83C109.58 -7.38 109.64 -8.66 109.75 -9.66C110.75 -17.76 114.08 -25.81 119.74 -33.81C120.41 -34.92 119.8 -35.86 117.91 -36.64C116.02 -37.42 114.41 -37.8 113.08 -37.8C112.3 -37.8 106.81 -32.31 96.59 -21.32C93.71 -18.21 88.32 -13.32 80.44 -6.66C75.66 -2.89 72.11 -1 69.78 -1C67.45 -1 66.28 -3.05 66.28 -7.16C66.28 -9.27 67.75 -12.63 70.7 -17.24C73.64 -21.84 77.05 -25.98 80.94 -29.64C85.6 -33.75 90.57 -37.17 95.84 -39.89C101.12 -42.61 105.84 -43.97 110 -43.97C114.16 -43.97 116.91 -42.91 118.24 -40.8C118.68 -40.58 118.96 -40.52 119.08 -40.64C119.19 -40.75 119.24 -41.08 119.24 -41.63C119.24 -43.3 118.19 -44.88 116.08 -46.38C113.97 -47.88 111.44 -48.63 108.5 -48.63C105.56 -48.63 102.53 -48.24 99.42 -47.46C96.31 -46.69 92.1 -44.74 86.77 -41.63C81.44 -38.53 76.3 -34.78 71.36 -30.39C66.42 -26.01 62.84 -21.48 60.62 -16.82C59.62 -14.82 59.12 -12.71 59.12 -10.49C59.12 -8.27 59.84 -6.19 61.29 -4.25C62.73 -2.3 64.48 -0.8 66.53 0.25C68.59 1.3 70.5 1.83 72.28 1.83Z M162.04 4.16C166.71 4.16 171.04 2.61 175.03 -0.5C179.14 -3.39 183.36 -7.16 187.69 -11.82C192.02 -16.49 195.02 -20.32 196.68 -23.32C196.9 -23.65 197.02 -23.95 197.02 -24.23C197.02 -24.51 196.71 -24.79 196.1 -25.06C195.49 -25.34 194.96 -25.2 194.52 -24.65C191.41 -20.21 187.3 -15.68 182.19 -11.07C177.09 -6.47 173.45 -3.55 171.29 -2.33C169.12 -1.11 167.65 -0.5 166.87 -0.5C164.54 -0.5 163.37 -2.11 163.37 -5.33C163.37 -6.88 163.76 -8.72 164.54 -10.83C167.87 -19.6 172.87 -27.87 179.53 -35.64C182.64 -39.19 184.58 -42.02 185.36 -44.13C185.8 -45.35 185.58 -46.21 184.69 -46.71C183.8 -47.21 182.42 -47.46 180.53 -47.46L174.7 -47.3C171.15 -47.3 166.87 -47.46 161.88 -47.8L168.37 -58.12C170.59 -62.12 171.04 -64.12 169.7 -64.12C169.04 -64.12 168.43 -64.01 167.87 -63.78C167.32 -63.56 165.98 -62.95 163.87 -61.95C161.76 -60.95 159.29 -59.01 156.46 -56.12C153.63 -53.24 151.94 -50.93 151.38 -49.21C150.83 -47.49 150.88 -46.27 151.55 -45.55C152.22 -44.83 153.22 -44.35 154.55 -44.13C150.22 -35.81 145.06 -27.98 139.06 -20.65C138.39 -19.76 138.06 -19.1 138.06 -18.65C138.06 -18.21 138.34 -17.82 138.89 -17.49C139.45 -17.15 140.5 -17.99 142.06 -19.98C143.61 -21.98 149.39 -30.03 159.38 -44.13C161.38 -44.13 163.99 -43.83 167.2 -43.22C170.42 -42.61 172.26 -41.63 172.7 -40.3L173.2 -38.8C173.31 -38.25 172.59 -36.92 171.04 -34.81L169.87 -33.14C169.54 -32.7 168.98 -32.09 168.2 -31.31C158.43 -21.32 153.55 -12.91 153.55 -6.08C153.55 0.75 156.38 4.16 162.04 4.16Z M219.16 -46.63L217 -46.46L224.99 -60.45C225.33 -61.12 225.94 -61.73 226.83 -62.29C227.71 -62.84 228.55 -63.76 229.32 -65.03C230.1 -66.31 230.49 -67.48 230.49 -68.53C230.49 -69.59 230.32 -70.33 229.99 -70.78C229.21 -72 227.74 -72.61 225.58 -72.61C223.41 -72.61 222.11 -72.28 221.66 -71.61L221 -70.95C220.77 -70.72 220.5 -70.34 220.16 -69.78C219.83 -69.22 219.53 -68.7 219.25 -68.2C218.97 -67.7 218.55 -66.98 218 -66.03C217.44 -65.09 216.94 -64.17 216.5 -63.28L208.17 -47.8C207.84 -47.8 207.62 -47.69 207.51 -47.46C202.4 -47.24 199.46 -46.24 198.68 -44.47C198.24 -43.47 198.29 -42.61 198.85 -41.88C199.4 -41.16 200.26 -40.8 201.43 -40.8C202.59 -40.8 203.73 -40.91 204.84 -41.14C202.4 -36.58 201.18 -34.25 201.18 -34.14C198.07 -29.48 193.8 -23.76 188.36 -16.99C187.91 -16.43 187.69 -15.96 187.69 -15.57C187.69 -15.18 187.74 -14.88 187.86 -14.66C188.41 -13.55 189.19 -13.55 190.19 -14.66C193.96 -18.99 196.13 -21.76 196.68 -22.98C193.13 -15.1 191.35 -9.22 191.35 -5.33C191.35 -4.22 191.46 -3.28 191.69 -2.5C193.13 1.72 196.07 3.83 200.51 3.83C202.4 3.83 204.73 3.33 207.51 2.33C212.28 0.56 218.22 -4.16 225.33 -11.82C232.77 -19.82 235.65 -24.2 233.99 -24.98C233.32 -25.31 232.77 -25.2 232.32 -24.65C229.1 -20.21 224.91 -15.65 219.75 -10.99C214.59 -6.33 210.56 -3.22 207.67 -1.67C204.79 -0.11 202.57 -0.22 201.01 -2C200.12 -3 199.68 -4.27 199.68 -5.83C199.68 -7.38 199.74 -8.66 199.85 -9.66C200.18 -13.1 203.51 -21.15 209.84 -33.81C209.95 -34.36 210.84 -35.97 212.5 -38.64C213.28 -39.97 213.95 -41.14 214.5 -42.13C224.61 -43.24 230.96 -44.16 233.57 -44.88C236.18 -45.6 237.48 -46.3 237.48 -46.96C237.48 -47.52 236.57 -47.8 234.74 -47.8C232.9 -47.8 227.71 -47.41 219.16 -46.63Z"/></g></svg>